<?xml version="1.0" encoding="UTF-8" standalone="no"?>
<!-- Created with Inkscape (http://www.inkscape.org/) -->

<svg
   width="935mm"
   height="135mm"
   viewBox="0 0 934.99997 135"
   version="1.1"
   id="svg1"
   xml:space="preserve"
   xmlns="http://www.w3.org/2000/svg"
   xmlns:svg="http://www.w3.org/2000/svg"><defs
     id="defs1" /><g
     id="text1"
     style="font-size:176.366px;line-height:1.25;font-family:Outfit;-inkscape-font-specification:Outfit;letter-spacing:-14.3648px;word-spacing:0px;stroke-width:4.40914"
     transform="matrix(1.0118954,0,0,1.0003671,31.425031,0.25850911)"
     aria-label="ENERGY"><path
       style="font-weight:600;-inkscape-font-specification:'Outfit Semi-Bold';fill:#f2f0e8;fill-opacity:1"
       d="M 822.06096,81.995098 774.08941,5.8049871 h 27.68946 L 838.99209,66.827622 H 823.11915 L 860.33238,5.8049871 h 27.33673 L 839.16846,81.995098 Z m -3.17459,47.795182 v -60.6699 h 24.16214 v 60.6699 z"
       id="path10" /><path
       style="font-weight:600;font-size:176.366px;line-height:1.25;font-family:Outfit;-inkscape-font-specification:'Outfit Semi-Bold';letter-spacing:-23.8125px;word-spacing:0px;fill:#f2f0e8;fill-opacity:1;stroke-width:4.10918"
       d="m 737.48992,131.55394 c -7.65924,0 -14.85893,-1.58729 -21.59907,-4.76188 -6.638,-3.29217 -12.51008,-7.87768 -17.61625,-13.75655 -5.00404,-5.87887 -8.93579,-12.63956 -11.79524,-20.282086 -2.75733,-7.760104 -4.13599,-16.108095 -4.13599,-25.043972 0,-9.053455 1.42972,-17.401445 4.28917,-25.043971 2.85946,-7.760104 6.84226,-14.520801 11.94841,-20.28209 5.10617,-5.878867 11.08039,-10.405594 17.92265,-13.580182 6.84225,-3.2921653 14.24618,-4.9382479 22.2118,-4.9382479 8.88471,0 17.05457,1.940026 24.50957,5.8200779 7.45499,3.762475 13.63345,9.112243 18.53537,16.049306 l -14.09301,16.225672 c -3.37006,-5.055825 -7.55711,-8.935877 -12.56116,-11.640156 -5.00403,-2.704279 -10.51868,-4.056418 -16.54397,-4.056418 -6.84225,0 -12.91857,1.76366 -18.22898,5.29098 -5.20829,3.409743 -9.29322,8.230413 -12.2548,14.462011 -2.96157,6.114021 -4.44235,13.286239 -4.44235,21.516652 0,8.230413 1.42972,15.520208 4.28917,21.869384 2.96158,6.231599 6.94439,11.11106 11.94842,14.63838 5.10616,3.52732 10.92718,5.29098 17.46307,5.29098 6.74013,0 12.5101,-1.41093 17.30989,-4.23279 4.79979,-2.93943 8.47623,-7.172216 11.02931,-12.698348 2.55308,-5.643712 3.82962,-15.695821 3.82962,-23.808657 l 13.63346,10.758326 -47.02776,-0.529098 V 58.010075 h 54.84018 v 6.524789 c 0,14.814744 -2.29778,27.219153 -6.89333,37.213226 -4.59554,9.87649 -10.92718,17.34265 -18.99491,22.39848 -7.96561,4.93825 -17.1567,7.40737 -27.57327,7.40737 z"
       id="path9" /><path
       style="font-weight:600;font-size:176.366px;line-height:1.25;font-family:Outfit;-inkscape-font-specification:'Outfit Semi-Bold';letter-spacing:-14.3642px;word-spacing:0px;fill:#f2f0e8;fill-opacity:1;stroke-width:4.40914"
       d="M 610.25761,77.93868 V 59.243884 h 28.74766 q 8.8183,0 13.58018,-4.40915 4.93825,-4.585516 4.93825,-12.521985 0,-7.231006 -4.93825,-11.992888 -4.76188,-4.938248 -13.58018,-4.938248 H 610.25761 V 5.8049871 h 30.86405 q 11.99289,0 20.98756,4.7618819 9.17103,4.585516 14.10928,12.698352 5.11461,8.112836 5.11461,18.694796 0,10.934691 -5.11461,19.047527 -4.93825,7.93647 -14.10928,12.521986 -9.17104,4.40915 -21.34029,4.40915 z m -17.6366,51.8516 V 5.8049871 h 23.98578 V 129.79028 Z m 67.72455,0 -40.91692,-53.61526 22.04575,-6.878274 47.97156,60.493534 z"
       id="path8" /><path
       style="font-weight:600;font-size:176.366px;line-height:1.25;font-family:Outfit;-inkscape-font-specification:'Outfit Semi-Bold';letter-spacing:-14.3648px;word-spacing:0px;fill:#f2f0e8;fill-opacity:1;stroke-width:4.40914"
       d="M 500.81361,129.79028 V 5.8049871 h 23.98578 V 129.79028 Z m 17.6366,0 v -21.16392 h 68.60637 v 21.16392 z m 0,-50.970273 V 58.361551 h 62.43356 v 20.458456 z m 0,-51.8511 V 5.8049871 h 67.72454 V 26.968907 Z"
       id="path7" /><path
       style="font-weight:600;font-size:176.366px;line-height:1.25;font-family:Outfit;-inkscape-font-specification:'Outfit Semi-Bold';letter-spacing:-18.2825px;word-spacing:0px;fill:#f2f0e8;fill-opacity:1;stroke-width:4.30562"
       d="M 395.5847,129.79028 V 5.8049871 h 15.97722 l 6.89544,23.9857759 v 99.999517 z m 81.73612,0 -70.1316,-95.237635 4.3727,-28.7476579 70.13161,95.2376429 z m 0,0 -6.55907,-23.28031 V 5.8049871 h 23.04084 V 129.79028 Z"
       id="path6" /><path
       style="font-weight:600;font-size:176.366px;line-height:1.25;font-family:Outfit;-inkscape-font-specification:'Outfit Semi-Bold';letter-spacing:-14.3648px;word-spacing:0px;fill:#f2f0e8;fill-opacity:1;stroke-width:4.40914"
       d="M 303.7773,129.79028 V 5.8049871 h 23.98578 V 129.79028 Z m 17.6366,0 v -21.16392 h 68.60637 v 21.16392 z m 0,-50.970272 V 58.361552 h 62.43356 v 20.458456 z m 0,-51.851101 V 5.8049871 h 67.72454 V 26.968907 Z"
       id="path5" /></g><g
     id="th-e-8"
     transform="translate(-10.709707,-88.689447)"
     style="font-size:176.366px;line-height:1.25;font-family:Outfit;-inkscape-font-specification:Outfit;letter-spacing:-14.3648px;word-spacing:0px;display:inline;stroke-width:4.40914"><path
       style="display:inline;fill:#7a8430;fill-opacity:1"
       d="m 201.791,94.63772 h 20.92974 v 51.57725 20.78486 31.5622 h 60.09552 v 20.01506 h -80.88038 c 0.0389,-41.31322 -0.0622,-82.62626 -0.14488,-123.93937 z m 28.62784,0 h 52.39742 v 20.01505 h -52.39742 z m 0,52.91667 h 52.39742 v 20.01505 h -52.39742 z"
       id="E-8" /><path
       style="display:inline;fill:#dca015;fill-opacity:1"
       d="m 98.011553,94.63772 h 43.879157 v 20.01505 h -23.09429 v 31.5622 h 54.65649 V 120.42634 94.63772 h 20.92975 c -0.13386,41.31307 -0.14488,82.62617 -0.14488,123.93937 h -20.78487 v -51.57726 h -54.65649 v 51.57726 H 98.011553 Z"
       id="H-2" /><path
       style="display:inline;fill:#dca015;fill-opacity:1"
       d="m 69.143686,115.03768 -52.006706,-0.40544 0.42945,-20.027375 71.977224,-0.35205 -9e-6,124.324275 H 69.539426 Z m 28.867867,-0.23445 V 94.63772 h 43.879157 v 20.01505 c -14.62687,-0.049 -29.25278,0.0446 -43.879157,0.15046 z"
       id="T-4" /></g></svg>
